<svg width="652" height="389" viewBox="0 0 652 389" fill="none" xmlns="http://www.w3.org/2000/svg">
<rect x="4" y="4.83557" width="116" height="116" rx="8" fill="#FBD7B9"/>
<rect x="4" y="4.83557" width="116" height="116" rx="8" stroke="#FF8C7A" stroke-width="8"/>
<path d="M37.84 91.8356V26.4516H64.944C71.984 26.4516 77.0293 28.0062 80.08 31.1156C83.1893 34.2249 84.744 38.4782 84.744 43.8756C84.744 46.3982 84.392 48.6276 83.688 50.5636C83.0427 52.4409 82.0453 54.0249 80.696 55.3156C79.4053 56.5476 77.7627 57.3982 75.768 57.8676C77.2933 58.2782 78.7307 58.8942 80.08 59.7156C81.4293 60.5369 82.6027 61.6222 83.6 62.9716C84.5973 64.3209 85.36 65.9049 85.888 67.7236C86.4747 69.5422 86.768 71.5956 86.768 73.8836C86.768 78.1662 86.0053 81.6276 84.48 84.2676C82.9547 86.9076 80.6667 88.8436 77.616 90.0756C74.5653 91.2489 70.7813 91.8356 66.264 91.8356H37.84ZM54.912 76.5236H65.736C66.792 76.5236 67.672 76.2889 68.376 75.8196C69.08 75.3502 69.608 74.7049 69.96 73.8836C70.3707 73.0036 70.576 71.9769 70.576 70.8036C70.576 69.6302 70.3707 68.6329 69.96 67.8116C69.608 66.9316 69.08 66.2569 68.376 65.7876C67.672 65.3182 66.792 65.0836 65.736 65.0836H54.912V76.5236ZM54.912 52.1476H64.768C66.0587 52.1476 66.9973 51.6489 67.584 50.6516C68.2293 49.6542 68.552 48.4222 68.552 46.9556C68.552 44.9609 68.1413 43.6116 67.32 42.9076C66.5573 42.1449 65.7067 41.7636 64.768 41.7636H54.912V52.1476Z" fill="#FF8C7A"/>
<rect x="136" y="4.83557" width="116" height="116" rx="8" fill="#FBD7B9"/>
<rect x="136" y="4.83557" width="116" height="116" rx="8" stroke="#FF8C7A" stroke-width="8"/>
<path d="M189.088 92.3636C187.68 92.3636 185.979 92.2169 183.984 91.9236C182.048 91.6302 180.141 90.9849 178.264 89.9876C176.445 88.9902 174.92 87.4649 173.688 85.4116C172.456 83.2996 171.84 80.4249 171.84 76.7876V42.6436C171.84 39.4756 172.339 36.8356 173.336 34.7236C174.333 32.6116 175.624 30.9689 177.208 29.7956C178.792 28.5636 180.552 27.7129 182.488 27.2436C184.424 26.7156 186.301 26.4516 188.12 26.4516C193.048 26.4516 197.272 26.5396 200.792 26.7156C204.371 26.8329 207.451 26.9796 210.032 27.1556C212.672 27.3316 214.989 27.5369 216.984 27.7716V42.2036H193.4C191.933 42.2036 190.819 42.5262 190.056 43.1716C189.293 43.8169 188.912 44.7849 188.912 46.0756V51.5316L212.584 52.4116V65.9636L188.912 66.8436V71.7716C188.912 72.8276 189.059 73.7076 189.352 74.4116C189.704 75.0569 190.173 75.5556 190.76 75.9076C191.347 76.2009 191.992 76.3476 192.696 76.3476H216.984V90.7796C214.461 91.1316 211.587 91.4249 208.36 91.6596C205.133 91.8942 201.848 92.0702 198.504 92.1876C195.16 92.3049 192.021 92.3636 189.088 92.3636Z" fill="#FF8C7A"/>
<rect x="268" y="4.83557" width="116" height="116" rx="8" fill="#FBD7B9"/>
<rect x="268" y="4.83557" width="116" height="116" rx="8" stroke="#FF8C7A" stroke-width="8"/>
<path d="M323.824 91.8356C319.893 91.8356 316.667 91.2489 314.144 90.0756C311.621 88.9022 309.773 87.0542 308.6 84.5316C307.427 82.0089 306.84 78.7822 306.84 74.8516V26.4516H323.912V71.9476C323.912 72.9449 324.059 73.7956 324.352 74.4996C324.704 75.2036 325.232 75.7316 325.936 76.0836C326.64 76.3769 327.491 76.5236 328.488 76.5236H347.496V91.8356H323.824Z" fill="#FF8C7A"/>
<rect x="400" y="4.83557" width="116" height="116" rx="8" fill="#FBD7B9"/>
<rect x="400" y="4.83557" width="116" height="116" rx="8" stroke="#FF8C7A" stroke-width="8"/>
<path d="M455.824 91.8356C451.893 91.8356 448.667 91.2489 446.144 90.0756C443.621 88.9022 441.773 87.0542 440.6 84.5316C439.427 82.0089 438.84 78.7822 438.84 74.8516V26.4516H455.912V71.9476C455.912 72.9449 456.059 73.7956 456.352 74.4996C456.704 75.2036 457.232 75.7316 457.936 76.0836C458.64 76.3769 459.491 76.5236 460.488 76.5236H479.496V91.8356H455.824Z" fill="#FF8C7A"/>
<rect x="4" y="136.836" width="116" height="116" rx="8" fill="#FBD7B9"/>
<rect x="4" y="136.836" width="116" height="116" rx="8" stroke="#FF8C7A" stroke-width="8"/>
<path d="M63.192 224.364C59.496 224.364 56.1813 223.924 53.248 223.044C50.3147 222.164 47.792 220.55 45.68 218.204C43.568 215.857 41.9547 212.484 40.84 208.084C39.7253 203.684 39.168 197.964 39.168 190.924C39.168 184.118 39.7547 178.545 40.928 174.204C42.1013 169.862 43.744 166.518 45.856 164.172C48.0267 161.766 50.5787 160.124 53.512 159.244C56.4453 158.305 59.672 157.836 63.192 157.836C66.8293 157.836 70.0267 158.041 72.784 158.452C75.6 158.804 77.976 159.244 79.912 159.772C81.9067 160.3 83.4907 160.828 84.664 161.356V174.644C83.5493 174.409 82.112 174.174 80.352 173.94C78.592 173.705 76.568 173.529 74.28 173.412C72.0507 173.236 69.616 173.148 66.976 173.148C64.9813 173.148 63.28 173.353 61.872 173.764C60.5227 174.174 59.4373 174.996 58.616 176.228C57.7947 177.46 57.1787 179.278 56.768 181.684C56.416 184.03 56.24 187.169 56.24 191.1C56.24 194.62 56.3867 197.553 56.68 199.9C56.9733 202.246 57.5013 204.094 58.264 205.444C59.0267 206.734 60.112 207.673 61.52 208.26C62.9867 208.788 64.864 209.052 67.152 209.052C71.6107 209.052 75.2187 208.993 77.976 208.876C80.792 208.7 83.0213 208.494 84.664 208.26V221.548C83.1973 222.134 81.4667 222.633 79.472 223.044C77.536 223.454 75.248 223.777 72.608 224.012C69.968 224.246 66.8293 224.364 63.192 224.364Z" fill="#FF8C7A"/>
<rect x="136" y="136.836" width="116" height="116" rx="8" fill="#FBD7B9"/>
<rect x="136" y="136.836" width="116" height="116" rx="8" stroke="#FF8C7A" stroke-width="8"/>
<path d="M193.448 224.276C189.869 224.276 186.467 223.982 183.24 223.396C180.072 222.809 177.256 221.724 174.792 220.14C172.328 218.556 170.392 216.326 168.984 213.452C167.635 210.577 166.96 206.852 166.96 202.276V158.452H184.032V202.188C184.032 203.713 184.384 204.974 185.088 205.972C185.851 206.969 186.936 207.732 188.344 208.26C189.752 208.729 191.453 208.964 193.448 208.964C195.443 208.964 197.144 208.729 198.552 208.26C199.96 207.732 201.016 206.969 201.72 205.972C202.483 204.974 202.864 203.713 202.864 202.188V158.452H219.936V202.276C219.936 206.852 219.232 210.577 217.824 213.452C216.475 216.326 214.568 218.556 212.104 220.14C209.64 221.724 206.824 222.809 203.656 223.396C200.488 223.982 197.085 224.276 193.448 224.276Z" fill="#FF8C7A"/>
<rect x="268" y="136.836" width="116" height="116" rx="8" fill="#FBD7B9"/>
<rect x="268" y="136.836" width="116" height="116" rx="8" stroke="#FF8C7A" stroke-width="8"/>
<path d="M301.84 223.836V158.452H329.736C332.611 158.452 335.251 158.804 337.656 159.508C340.061 160.212 342.144 161.414 343.904 163.116C345.664 164.758 347.013 166.988 347.952 169.804C348.949 172.62 349.448 176.169 349.448 180.452C349.448 183.15 349.213 185.497 348.744 187.492C348.275 189.486 347.629 191.188 346.808 192.596C346.045 193.945 345.107 195.089 343.992 196.028C342.936 196.966 341.792 197.788 340.56 198.492L351.912 223.836H334.576L325.424 201.308C324.896 201.308 324.339 201.308 323.752 201.308C323.224 201.308 322.696 201.308 322.168 201.308C321.64 201.308 321.083 201.308 320.496 201.308C319.968 201.308 319.44 201.308 318.912 201.308V223.836H301.84ZM318.912 187.756H326.656C327.595 187.756 328.416 187.638 329.12 187.404C329.824 187.11 330.411 186.67 330.88 186.084C331.408 185.497 331.789 184.764 332.024 183.884C332.259 182.945 332.376 181.83 332.376 180.54C332.376 179.249 332.259 178.164 332.024 177.284C331.789 176.404 331.408 175.729 330.88 175.26C330.411 174.732 329.824 174.35 329.12 174.116C328.416 173.881 327.595 173.764 326.656 173.764H318.912V187.756Z" fill="#FF8C7A"/>
<rect x="400" y="136.836" width="116" height="116" rx="8" fill="#FBD7B9"/>
<rect x="400" y="136.836" width="116" height="116" rx="8" stroke="#FF8C7A" stroke-width="8"/>
<path d="M446.8 224.836L427.44 159.452H445.128L457.536 206.268L469.944 159.452H487.456L468.096 224.836H446.8Z" fill="#FF8C7A"/>
<rect x="532" y="136.836" width="116" height="116" rx="8" fill="#FBD7B9"/>
<rect x="532" y="136.836" width="116" height="116" rx="8" stroke="#FF8C7A" stroke-width="8"/>
<path d="M585.088 224.364C583.68 224.364 581.979 224.217 579.984 223.924C578.048 223.63 576.141 222.985 574.264 221.988C572.445 220.99 570.92 219.465 569.688 217.412C568.456 215.3 567.84 212.425 567.84 208.788V174.644C567.84 171.476 568.339 168.836 569.336 166.724C570.333 164.612 571.624 162.969 573.208 161.796C574.792 160.564 576.552 159.713 578.488 159.244C580.424 158.716 582.301 158.452 584.12 158.452C589.048 158.452 593.272 158.54 596.792 158.716C600.371 158.833 603.451 158.98 606.032 159.156C608.672 159.332 610.989 159.537 612.984 159.772V174.204H589.4C587.933 174.204 586.819 174.526 586.056 175.172C585.293 175.817 584.912 176.785 584.912 178.076V183.532L608.584 184.412V197.964L584.912 198.844V203.772C584.912 204.828 585.059 205.708 585.352 206.412C585.704 207.057 586.173 207.556 586.76 207.908C587.347 208.201 587.992 208.348 588.696 208.348H612.984V222.78C610.461 223.132 607.587 223.425 604.36 223.66C601.133 223.894 597.848 224.07 594.504 224.188C591.16 224.305 588.021 224.364 585.088 224.364Z" fill="#FF8C7A"/>
<rect x="4" y="268.836" width="116" height="116" rx="8" fill="#FBD7B9"/>
<rect x="4" y="268.836" width="116" height="116" rx="8" stroke="#FF8C7A" stroke-width="8"/>
<path d="M37.84 355.836V290.452H64.944C71.984 290.452 77.0293 292.006 80.08 295.116C83.1893 298.225 84.744 302.478 84.744 307.876C84.744 310.398 84.392 312.628 83.688 314.564C83.0427 316.441 82.0453 318.025 80.696 319.316C79.4053 320.548 77.7627 321.398 75.768 321.868C77.2933 322.278 78.7307 322.894 80.08 323.716C81.4293 324.537 82.6027 325.622 83.6 326.972C84.5973 328.321 85.36 329.905 85.888 331.724C86.4747 333.542 86.768 335.596 86.768 337.884C86.768 342.166 86.0053 345.628 84.48 348.268C82.9547 350.908 80.6667 352.844 77.616 354.076C74.5653 355.249 70.7813 355.836 66.264 355.836H37.84ZM54.912 340.524H65.736C66.792 340.524 67.672 340.289 68.376 339.82C69.08 339.35 69.608 338.705 69.96 337.884C70.3707 337.004 70.576 335.977 70.576 334.804C70.576 333.63 70.3707 332.633 69.96 331.812C69.608 330.932 69.08 330.257 68.376 329.788C67.672 329.318 66.792 329.084 65.736 329.084H54.912V340.524ZM54.912 316.148H64.768C66.0587 316.148 66.9973 315.649 67.584 314.652C68.2293 313.654 68.552 312.422 68.552 310.956C68.552 308.961 68.1413 307.612 67.32 306.908C66.5573 306.145 65.7067 305.764 64.768 305.764H54.912V316.148Z" fill="#FF8C7A"/>
<rect x="136" y="268.836" width="116" height="116" rx="8" fill="#FBD7B9"/>
<rect x="136" y="268.836" width="116" height="116" rx="8" stroke="#FF8C7A" stroke-width="8"/>
<path d="M163.44 355.836L182.8 290.452H204.096L223.456 355.836H205.768L203.128 345.452H183.504L180.952 355.836H163.44ZM187.464 330.14H199.168L193.272 304.972L187.464 330.14Z" fill="#FF8C7A"/>
<rect x="268" y="268.836" width="116" height="116" rx="8" fill="#FBD7B9"/>
<rect x="268" y="268.836" width="116" height="116" rx="8" stroke="#FF8C7A" stroke-width="8"/>
<path d="M301.84 355.836V290.452H328.944C335.984 290.452 341.029 292.006 344.08 295.116C347.189 298.225 348.744 302.478 348.744 307.876C348.744 310.398 348.392 312.628 347.688 314.564C347.043 316.441 346.045 318.025 344.696 319.316C343.405 320.548 341.763 321.398 339.768 321.868C341.293 322.278 342.731 322.894 344.08 323.716C345.429 324.537 346.603 325.622 347.6 326.972C348.597 328.321 349.36 329.905 349.888 331.724C350.475 333.542 350.768 335.596 350.768 337.884C350.768 342.166 350.005 345.628 348.48 348.268C346.955 350.908 344.667 352.844 341.616 354.076C338.565 355.249 334.781 355.836 330.264 355.836H301.84ZM318.912 340.524H329.736C330.792 340.524 331.672 340.289 332.376 339.82C333.08 339.35 333.608 338.705 333.96 337.884C334.371 337.004 334.576 335.977 334.576 334.804C334.576 333.63 334.371 332.633 333.96 331.812C333.608 330.932 333.08 330.257 332.376 329.788C331.672 329.318 330.792 329.084 329.736 329.084H318.912V340.524ZM318.912 316.148H328.768C330.059 316.148 330.997 315.649 331.584 314.652C332.229 313.654 332.552 312.422 332.552 310.956C332.552 308.961 332.141 307.612 331.32 306.908C330.557 306.145 329.707 305.764 328.768 305.764H318.912V316.148Z" fill="#FF8C7A"/>
<rect x="400" y="268.836" width="116" height="116" rx="8" fill="#FBD7B9"/>
<rect x="400" y="268.836" width="116" height="116" rx="8" stroke="#FF8C7A" stroke-width="8"/>
<path d="M449.36 356.836V338.268L430.44 291.452H448.128L458.248 320.844L468.368 291.452H485.352L466.432 338.268V356.836H449.36Z" fill="#FF8C7A"/>
</svg>
