<svg version="1.1" xmlns="http://www.w3.org/2000/svg" style="display: block;" viewBox="0 0 2048 2048" width="1024" height="1024" preserveAspectRatio="none">
<defs>
	<linearGradient id="Gradient1" gradientUnits="userSpaceOnUse" x1="1053.69" y1="362.336" x2="1041.91" y2="316.988">
		<stop class="stop0" offset="0" stop-opacity="0" stop-color="rgb(64,73,60)"/>
		<stop class="stop1" offset="1" stop-opacity="0.0117647" stop-color="rgb(27,14,28)"/>
	</linearGradient>
	<linearGradient id="Gradient2" gradientUnits="userSpaceOnUse" x1="471.274" y1="1401.07" x2="432.645" y2="1397.92">
		<stop class="stop0" offset="0" stop-opacity="0" stop-color="rgb(74,76,70)"/>
		<stop class="stop1" offset="1" stop-opacity="0.0156863" stop-color="rgb(61,55,62)"/>
	</linearGradient>
</defs>
<path transform="translate(0,0)" fill="rgb(22,22,22)" d="M 974.22 342.126 C 995.007 342.701 1015.89 341.923 1036.7 341.957 C 1065.15 342.003 1094.11 342.988 1122.49 344.916 C 1128.74 346.024 1135.41 345.879 1141.77 346.281 C 1162.08 347.565 1182.4 350.116 1202.64 352.256 C 1341.88 366.981 1509.96 402.499 1606.81 512.942 C 1647.05 558.841 1673.27 617.228 1669 679.294 C 1664.88 739.174 1634.65 789.942 1590.09 828.817 L 1590.09 1362.26 L 1590.11 1527.58 C 1590.13 1557.49 1591.37 1587.89 1589.76 1617.72 C 1588.2 1646.71 1572.43 1674.46 1550.85 1693.39 C 1533.63 1708.51 1513.05 1718.25 1490.25 1721.09 C 1474.4 1723.06 1458.06 1722.39 1442.1 1722.38 L 1371.41 1722.3 L 1137.45 1722.53 L 750.725 1722.27 L 634.005 1722.28 C 610.979 1722.35 587.525 1723.4 564.549 1721.9 C 534.117 1719.92 507.027 1705.98 486.96 1683.07 C 472.779 1666.89 462.452 1646.37 459.506 1624.92 C 457.321 1609 458.042 1592.54 458.027 1576.5 L 457.972 1508.09 L 457.905 1276.8 L 457.944 967.997 L 457.902 874.014 C 457.849 858.735 456.597 843.236 457.629 828.008 C 457.018 827.548 456.416 827.077 455.824 826.594 C 415.932 794.119 385.427 740.258 380.105 689.129 C 373.65 627.117 395.143 568.531 434.243 520.823 C 535.17 397.679 719.777 363.49 869.697 349.01 C 904.461 345.652 939.536 345.528 974.22 342.126 z M 1041.75 1664.39 L 1352.04 1664.36 L 1436.98 1664.34 C 1452.56 1664.33 1469.85 1665.75 1485.16 1663.08 C 1496.2 1661.16 1506.29 1655.28 1514.14 1647.43 C 1522.24 1639.32 1530.04 1627.54 1531.53 1615.88 C 1532.79 1606.06 1532.25 1595.68 1532.23 1585.79 L 1532.14 1536.82 L 1532.2 1373.59 L 1532.04 831.444 C 1531.88 813.292 1536.13 799.736 1548.95 786.537 C 1556.23 779.043 1564.19 772.214 1571.14 764.401 C 1595.5 737.012 1610.72 702.944 1610.35 665.98 C 1609.85 616.416 1583.4 571.127 1548.74 537.206 C 1445.77 436.428 1252.58 409.765 1115.55 402.131 C 1082.73 400.303 1049.68 398.721 1016.8 399.207 C 1013.44 399.257 1010.03 399.242 1006.68 399.466 C 851.292 401.601 609.996 422.642 495.081 540.435 C 461.197 575.168 436.999 619.694 437.689 669.176 C 438.186 704.84 453.355 738.168 477.146 764.387 C 492.335 781.126 511.985 793.921 515.637 817.965 C 517.743 831.83 515.965 858.25 515.961 873.747 L 515.949 1003.34 L 515.975 1456.29 L 515.931 1558.1 C 515.884 1575.81 513.481 1601.88 517.509 1618.54 C 520.343 1630.26 526.459 1640.37 535.142 1648.69 C 543.29 1656.5 554.746 1662.03 565.934 1663.5 C 582.385 1665.67 600.213 1664.35 616.858 1664.37 L 713.952 1664.4 L 1041.75 1664.39 z"/>
<path transform="translate(0,0)" fill="url(#Gradient2)" d="M 449.754 1182.92 C 450.966 1184.33 452.66 1185.19 454.219 1186.18 C 455.635 1198.12 454.168 1211.06 454.077 1223.1 L 454.235 1293.18 L 455 1607.83 C 454.914 1609.78 455.056 1611.65 454.081 1613.4 C 453.436 1614.55 453.467 1614.18 451.97 1614.45 C 450.069 1611.83 449.712 1608.75 449.586 1605.59 C 449.058 1592.32 449.784 1578.65 449.789 1565.35 L 449.805 1475.77 L 449.754 1182.92 z"/>
<path transform="translate(0,0)" fill="url(#Gradient1)" d="M 974.22 342.126 C 970.438 341.813 963.715 342.01 960.728 339.422 C 960.333 339.079 960.067 338.611 959.736 338.206 C 961.533 337.224 962.901 336.822 964.861 336.31 L 965.31 336.791 L 963.953 337.464 C 965.888 337.675 967.139 337.527 969.038 337.231 L 967.105 336.357 C 972.979 334.839 981.912 336.803 987.992 337.302 C 1012.76 339.336 1038.15 337.729 1062.96 337.147 C 1078.11 336.792 1093.32 337.335 1108.46 337.855 C 1115.97 338.112 1128.13 335.845 1134.8 338.732 L 1134.54 340.729 C 1131.72 342.761 1128.47 342.695 1125.12 343.017 L 1122.49 344.916 C 1094.11 342.988 1065.15 342.003 1036.7 341.957 C 1015.89 341.923 995.007 342.701 974.22 342.126 z"/>
</svg>