<svg version="1.1" xmlns="http://www.w3.org/2000/svg" style="display: block;" viewBox="0 0 2048 2048" width="1024" height="1024" preserveAspectRatio="none">
<path transform="translate(0,0)" fill="rgb(30,30,30)" d="M 995.089 110.412 C 1091.93 104.525 1193.69 132.923 1271.16 191.713 C 1340.07 244.009 1391.73 322.591 1413.93 406.209 C 1419.99 429.024 1422.87 451.679 1426.11 474.982 C 1438.27 474.794 1449.74 476.206 1460.33 482.708 C 1476.12 492.411 1485.25 510.477 1489.58 527.952 C 1496.44 556.102 1491.93 585.822 1477.03 610.671 C 1463.98 632.102 1445 645.377 1420.78 651.149 C 1415.44 685.712 1399.27 719.335 1378.56 747.24 C 1321.32 824.375 1217.41 873.272 1123.79 886.822 C 1123.82 905.546 1122.37 928.236 1128.99 945.924 C 1138.28 970.732 1178.73 974.236 1200.41 983.42 C 1215.06 989.629 1229.06 999.167 1239 1011.72 C 1257.36 1034.9 1263.29 1064.64 1275.17 1091.14 C 1287.56 1118.8 1303.77 1144.24 1321.59 1168.68 C 1348.2 1204.59 1377.1 1238.75 1408.1 1270.95 C 1453.29 1318.61 1503.34 1366.2 1538.13 1422.36 C 1553.97 1447.92 1568.88 1478.02 1561.42 1508.83 C 1557.2 1526.26 1545.76 1540.25 1530.44 1549.31 C 1510.84 1560.9 1486.87 1563.31 1465.01 1557.67 C 1439.73 1551.16 1420.44 1535.41 1407.35 1512.95 C 1395.07 1512.81 1383.31 1511.64 1372.22 1505.93 C 1358.42 1498.81 1348.09 1485.85 1343.55 1471.07 C 1336.71 1448.8 1343.2 1428.98 1353.57 1409.15 C 1347.3 1401.44 1339.83 1394.32 1333 1387.09 L 1295.36 1347.05 C 1276.32 1327.01 1257.54 1306.73 1239.03 1286.21 C 1229.8 1275.92 1221.12 1265.15 1211.85 1254.9 C 1211.64 1295.56 1217.47 1336.03 1229.16 1374.97 C 1236.76 1400.71 1246.04 1425.63 1252.22 1451.82 C 1261.26 1490.17 1263.96 1527.79 1265.25 1567.05 C 1294.52 1559.33 1323.82 1556.52 1353.14 1565.73 C 1385.58 1575.91 1410.96 1598.84 1426.57 1628.88 C 1444.84 1664.04 1445.54 1707.27 1433.44 1744.51 C 1415.89 1798.54 1372.25 1845.36 1322.13 1870.97 C 1323.32 1877.22 1324.12 1883.7 1323.99 1890.07 C 1323.7 1904.28 1319.17 1917.87 1308.55 1927.75 C 1290.33 1944.73 1261.55 1949.84 1237.51 1949.18 C 1194.14 1947.71 1153.09 1929.28 1123.18 1897.85 C 1099.33 1872.38 1091.21 1843.69 1092.51 1809.44 C 1077.72 1813.86 1062.53 1815.79 1047.24 1817.48 C 1021.38 1820.74 976.297 1818.08 951.856 1809.63 C 952.095 1819.31 952.183 1829 950.665 1838.59 C 945.312 1872.42 923.645 1898.99 896.395 1918.45 C 863.524 1941.91 821.129 1954.03 780.943 1947.23 C 761.548 1943.94 740.454 1935.82 728.949 1918.96 C 719.439 1905.02 718.921 1887.93 722.123 1871.92 C 683.388 1851.64 648.012 1819.63 626.66 1781.2 C 604.461 1741.25 595.234 1695.92 608.193 1651.29 C 617.969 1618.52 640.239 1590.91 670.195 1574.42 C 704.24 1556.05 741.745 1556.82 778.084 1567.53 C 777.739 1528.49 781.919 1489.55 790.54 1451.47 C 797.19 1423.39 807.101 1396.29 814.933 1368.55 C 825.385 1331.51 830.198 1294.13 830.383 1255.7 C 820.746 1269.06 808.179 1281.66 797.189 1293.99 C 762.101 1333.35 724.696 1370.71 688.997 1409.54 C 696.603 1421.6 701.456 1434.51 701.38 1448.94 C 701.288 1466.52 695.009 1482.89 682.342 1495.24 C 668.207 1509.02 652.184 1512.98 633.027 1512.88 C 627.57 1521.02 622.059 1528.8 615.027 1535.68 C 598.547 1551.94 576.216 1560.89 553.066 1560.5 C 533.018 1560.25 512.039 1552.95 498.011 1538.26 C 485.452 1525.1 479.638 1508.71 480.041 1490.63 C 481.702 1416.28 603.997 1304.65 653.968 1250.17 C 681.155 1220.53 707.638 1189.14 730.458 1156.02 C 743.515 1137.07 755.52 1117.57 765.202 1096.66 C 779.347 1066.11 787.035 1029.06 810.67 1004.17 C 843.603 969.489 884.918 980.485 908.517 957.157 C 924.655 941.204 921.735 908.222 921.942 887.417 C 848.238 874.67 777.628 850.114 718.392 803.297 C 672.461 766.996 628.405 711.409 621.581 651.644 C 606.158 647.949 592.208 641.403 580.716 630.337 C 560.575 610.943 550.386 583.834 550.023 556.155 C 549.72 533.036 555.965 507.408 572.723 490.568 C 585.875 477.353 599.794 475.049 617.55 474.979 C 620.5 395.019 658.549 310.905 709.713 250.387 C 783.315 163.328 882.975 119.672 995.089 110.412 z M 1267.86 782.157 C 1307.7 754.624 1341.95 724.923 1360.4 678.793 C 1364.1 669.545 1367.84 659.395 1369.55 649.544 C 1371.6 637.65 1370.35 618.02 1380.6 610.108 C 1396.25 598.021 1413.77 611.571 1431.85 588.894 C 1437.6 581.677 1441.17 572.782 1442.74 563.725 C 1444.79 551.886 1443.3 538.061 1436.17 528.023 C 1434.58 525.808 1432.93 523.633 1431.23 521.5 C 1420.54 527.175 1408.05 534.801 1395.45 531.293 C 1389.9 529.746 1384.72 525.555 1381.92 520.514 C 1374.8 507.674 1376.93 488.305 1375.56 473.923 C 1374.5 462.794 1373.03 451.44 1370.77 440.489 C 1346.28 316.425 1256.55 215.337 1136.27 176.294 C 1119.17 170.797 1101.45 166.111 1083.67 163.52 C 1096.27 185.676 1099.58 211.924 1092.87 236.514 C 1086.21 261.204 1070.09 282.275 1048 295.154 C 1026.74 307.632 1001.34 311.011 977.551 304.528 C 964.524 300.989 950.249 293.695 943.443 281.521 C 939.466 274.406 939.157 266.346 941.767 258.716 C 943.562 253.468 946.588 249.06 951.81 246.804 C 972.427 237.898 994.401 268.538 1023.82 252.701 C 1032.07 248.255 1038.26 240.72 1042.16 232.279 C 1047.92 219.779 1047.99 205.155 1042.96 192.397 C 1037.91 179.564 1027.75 168.315 1014.84 163.13 C 1005.4 159.336 995.828 159.602 985.902 160.418 C 890.553 169.861 804.569 213.423 743.467 287.747 C 703.238 336.752 677.277 395.886 668.43 458.668 C 665.831 476.774 666.604 495.633 663.306 513.476 C 661.686 522.239 655.786 530.483 646.378 531.629 C 633.675 533.176 615.014 518.127 608.009 526.059 C 600.737 534.293 597.655 551.262 598.788 561.986 C 600.114 574.53 607.344 588.895 617.369 596.452 C 634.988 609.734 664.407 597.834 668.982 625.773 C 670.8 636.874 670.995 647.629 673.79 658.651 C 685.744 705.779 720.504 744.47 758.818 772.681 C 853.542 842.429 992.047 857.818 1105.64 840.429 C 1161.93 831.813 1220.03 813.724 1267.86 782.157 z M 642.666 1463.05 L 643.703 1462.06 C 648.372 1457.56 651.331 1453.88 651.538 1447.18 C 652.07 1430.03 629.957 1412.23 635.307 1396.43 C 639.504 1384.03 687.926 1337.71 699.836 1325.42 C 732.031 1292.21 764.495 1258.64 793.14 1222.28 C 801.517 1211.64 809.446 1200.66 816.906 1189.36 C 822.934 1180.38 828.447 1169.93 836.206 1162.37 C 840.189 1158.49 844.347 1155.78 850.06 1156.1 C 854.952 1156.37 859.075 1158.43 862.236 1162.17 C 880.359 1183.64 880.447 1275.48 877.139 1304.54 C 873.993 1332.1 868.691 1359.36 861.282 1386.09 C 855.691 1406.35 848.849 1426.26 843.435 1446.58 C 838.266 1465.98 835.731 1485.94 830.694 1505.28 C 908.724 1529.47 996.827 1540.79 1078.24 1530.77 C 1122.96 1526.61 1170.09 1519.29 1212.46 1504.07 C 1208.18 1484.22 1204.6 1464.31 1199.22 1444.7 C 1192.84 1421.4 1184.51 1398.65 1178.11 1375.34 C 1163.6 1322.28 1160 1266.82 1167.51 1212.32 C 1169.54 1196.75 1170.89 1176.61 1179.86 1163.33 C 1182.2 1159.89 1185.5 1157.03 1189.68 1156.21 C 1194.23 1155.32 1200.93 1156.75 1204.74 1159.39 C 1215.1 1166.59 1223.39 1184.73 1230.83 1195.2 C 1238.59 1206.06 1246.53 1216.78 1254.66 1227.36 C 1286.81 1269.44 1324.25 1307.03 1361.25 1344.76 C 1368.47 1352.12 1408 1389.73 1409.33 1397.74 C 1411.59 1411.28 1393.29 1433.51 1390.69 1448.95 C 1392.2 1453.42 1393.54 1457.47 1396.11 1461.48 L 1397.48 1462.14 C 1404.36 1456.47 1401.27 1429.04 1428.65 1431.6 C 1435.08 1432.21 1440.77 1435.14 1444.88 1440.15 C 1449.31 1445.55 1451.65 1452.93 1450.66 1459.87 C 1449.64 1466.97 1447.52 1474.02 1445.66 1480.94 C 1449.76 1492.57 1455.4 1501.09 1466.87 1506.71 C 1476.29 1511.33 1489.7 1513.72 1499.74 1509.77 C 1506.28 1507.2 1510.61 1502.51 1513.14 1496.04 C 1513.65 1494.73 1514.07 1493.41 1514.5 1492.07 C 1512.56 1478.35 1507.67 1466.01 1500.98 1453.92 C 1467.77 1393.84 1387.78 1320.95 1340.39 1269.09 C 1313.08 1239.21 1286.79 1207.71 1264.87 1173.58 C 1252.9 1154.81 1242.06 1135.35 1232.41 1115.28 C 1222.99 1095.61 1209.35 1045.39 1193.52 1033.89 C 1182.1 1025.59 1166.26 1023.26 1152.95 1019.35 C 1114.93 1008.2 1086 984.774 1078.52 944.363 C 1075.44 927.722 1075.98 910.789 1076.21 893.95 C 1039.96 895.78 1005.37 895.657 969.112 893.851 C 971.631 925.915 970.269 961.258 948.161 986.799 C 915.776 1024.21 867.734 1015.14 845.873 1038.3 C 833.244 1051.69 817.238 1102.8 806.921 1123.26 C 794.253 1148.38 779.179 1172.16 763.278 1195.33 C 745.069 1221.87 723.643 1246.11 702.142 1269.99 C 664.753 1311.52 625.328 1351.1 588.178 1392.87 C 569.388 1414 526.584 1463.36 529.035 1491.6 C 529.563 1497.68 532.025 1502.3 535.541 1507.16 C 546.732 1512.07 557.664 1512.42 569.188 1507.82 C 578.327 1504.18 586.458 1497.76 590.258 1488.48 C 597.117 1471.73 580.371 1444.52 601.924 1434.39 C 608.487 1431.3 617.221 1430.79 623.96 1433.6 C 631.553 1436.77 636.29 1442.31 639.078 1449.97 C 640.604 1454.16 641.529 1458.73 642.666 1463.05 z M 1128.51 1769.89 C 1140.81 1770.54 1152.84 1771.74 1161.83 1781.27 C 1166.21 1785.91 1168.79 1791.9 1168.53 1798.33 C 1168.26 1805.28 1164.78 1811.2 1159.56 1815.62 C 1153.87 1820.43 1147.24 1822.3 1140.31 1824.61 C 1146.29 1851.26 1158.58 1867.94 1181.8 1882.48 C 1189.17 1887.02 1196.93 1890.89 1205 1894.03 C 1222.51 1899.63 1247.16 1904.22 1264.47 1895.54 C 1268.53 1893.5 1271.96 1890.35 1273.42 1885.95 C 1279.19 1868.44 1254.86 1852.07 1284.66 1835.46 C 1296.02 1829.13 1307.66 1824.13 1318.62 1816.95 C 1350.53 1796.07 1376.83 1761.58 1387.44 1724.9 C 1394.76 1699.61 1393.77 1672.95 1380.6 1649.71 C 1369.93 1630.9 1351.72 1615.66 1330.66 1610.12 C 1321.76 1607.78 1310.77 1606.76 1301.67 1608.34 C 1245.64 1616.64 1196.17 1649.44 1162.53 1694.55 C 1145.08 1717.95 1135.46 1741.77 1128.51 1769.89 z M 826.093 1552.83 C 825.747 1562.89 825.571 1572.97 824.474 1582.98 C 888.618 1620.76 943.166 1677.89 962.128 1751.69 C 962.946 1754.89 963.737 1758.09 964.5 1761.31 C 997.509 1770.06 1046.92 1773.42 1079.34 1761.29 C 1087.38 1720.45 1106.65 1687.49 1131.77 1655.03 C 1156.92 1624.73 1184.76 1602.57 1218.65 1582.86 C 1218.22 1572.64 1217.94 1562.42 1217.78 1552.19 C 1114.31 1587.11 995.255 1589.83 888.729 1568.74 C 868.025 1564.64 845.818 1560.46 826.093 1552.83 z M 902.853 1824.23 C 892.734 1821.73 883.209 1818.82 877.446 1809.27 C 874.255 1803.98 873.416 1797.97 874.94 1791.99 C 876.869 1784.42 882.162 1778.16 888.998 1774.51 C 897.187 1770.13 905.879 1769.91 914.923 1769.91 C 903.81 1716.11 867.739 1670.04 822.413 1639.99 C 791.682 1619.62 755.774 1604.91 718.326 1608.2 C 695.505 1613.35 678.126 1623.69 665.533 1643.87 C 650.996 1667.16 648.549 1694.58 654.875 1720.97 C 664.702 1761.95 696.142 1799.84 731.847 1821.41 C 744.027 1828.76 769.801 1837.01 773.698 1851.44 C 776.818 1862.98 763.58 1886.85 775.001 1893.64 C 790.858 1903.07 812.733 1901.22 829.708 1896.34 C 839.547 1893.51 848.577 1889.33 857.521 1884.39 C 880.244 1869.26 897.009 1853.19 902.594 1825.55 L 902.853 1824.23 z"/>
<path transform="translate(0,0)" fill="rgb(30,30,30)" d="M 891.928 609.18 C 914.675 606.962 916.809 622.171 928.389 636.705 C 934.596 644.494 943.634 651.074 952.222 655.994 C 994.694 680.325 1062.92 678.993 1101.51 647.258 C 1113.99 636.998 1126.2 612.297 1138.68 609.309 C 1145.15 607.762 1152.02 609.229 1157.53 612.87 C 1163.2 616.613 1167.46 622.405 1168.53 629.195 C 1170.38 640.915 1162.74 651.499 1156.46 660.602 C 1143.36 677.365 1126.91 691.214 1108.16 701.263 C 1065.49 723.824 1009.69 726.85 963.954 712.375 C 931.267 702.03 893.504 679.254 877.824 647.403 C 874.35 640.346 872.456 632.355 875.315 624.746 C 878.177 617.132 884.792 612.396 891.928 609.18 z"/>
<path transform="translate(0,0)" fill="rgb(30,30,30)" d="M 868.973 450.482 C 891.801 446.07 913.909 460.912 918.47 483.711 C 923.031 506.509 908.334 528.715 885.566 533.425 C 862.586 538.179 840.129 523.315 835.526 500.305 C 830.922 477.294 845.932 454.935 868.973 450.482 z"/>
<path transform="translate(0,0)" fill="rgb(30,30,30)" d="M 1160.45 450.525 C 1183.24 446.568 1204.95 461.721 1209.1 484.473 C 1213.25 507.225 1198.28 529.068 1175.56 533.409 C 1152.57 537.802 1130.41 522.614 1126.21 499.588 C 1122.01 476.563 1137.39 454.529 1160.45 450.525 z"/>
<path transform="translate(0,0)" fill="rgb(30,30,30)" d="M 1017.35 1451.38 C 1032.23 1449.03 1046.19 1459.24 1048.44 1474.14 C 1050.69 1489.04 1040.38 1502.92 1025.47 1505.07 C 1010.7 1507.2 996.981 1497.01 994.75 1482.26 C 992.52 1467.5 1002.61 1453.71 1017.35 1451.38 z"/>
</svg>