<svg width="36" height="36" viewBox="0 0 36 36" fill="none" xmlns="http://www.w3.org/2000/svg">
<rect x="2" y="2" width="32" height="32" rx="3.09677" fill="#FFE5D0"/>
<rect x="2" y="2" width="32" height="32" rx="3.09677" stroke="#FF8C7A" stroke-width="3.09677" stroke-linejoin="round"/>
<path d="M32.4366 22.9303C32.6066 22.9814 32.7615 23.0221 32.9041 23.054C33.4871 23.1845 34 23.6556 34 24.2531V31.0323C34 32.7426 32.6135 34.129 30.9032 34.129H5.09678C3.38647 34.129 2 32.7426 2 31.0323V24.2486C2 23.6528 2.50952 23.1861 3.09223 23.062C3.25544 23.0272 3.43719 22.9814 3.64501 22.922C5.15094 22.4915 7.49185 21.196 9.59063 17.1911C10.7591 14.9615 11.987 13.1681 13.3081 11.9076C14.6215 10.6545 16.2317 9.74194 18.1331 9.74194C20.0346 9.74194 21.6448 10.6545 22.9581 11.9076C24.2792 13.1681 25.5072 14.9615 26.6756 17.1911C28.7896 21.225 31.0436 22.5111 32.4366 22.9303Z" fill="#FF8C7A"/>
</svg>
